# Made in Blockbench 5.1.6
mtllib mruReactor_btm.mtl

o mesh
v 0.125 0.625 0.125
v 0.125 0.625 -0.125
v 0.125 0.1875 0.125
v 0.125 0.1875 -0.125
v -0.125 0.625 0.125
v -0.125 0.625 -0.125
v -0.125 0.1875 0.125
v -0.125 0.1875 -0.125
v -0.125 0.375 -0.125
v -0.125 0.375 -0.25
v -0.125 0.1875 -0.125
v -0.125 0.1875 -0.25
v -0.25 0.375 -0.125
v -0.25 0.375 -0.25
v -0.25 0.1875 -0.125
v -0.25 0.1875 -0.25
v -0.125 0.375 0.25
v -0.125 0.375 0.125
v -0.125 0.1875 0.25
v -0.125 0.1875 0.125
v -0.25 0.375 0.25
v -0.25 0.375 0.125
v -0.25 0.1875 0.25
v -0.25 0.1875 0.125
v 0.25 0.375 0.25
v 0.25 0.375 0.125
v 0.25 0.1875 0.25
v 0.25 0.1875 0.125
v 0.125 0.375 0.25
v 0.125 0.375 0.125
v 0.125 0.1875 0.25
v 0.125 0.1875 0.125
v 0.25 0.375 -0.125
v 0.25 0.375 -0.25
v 0.25 0.1875 -0.125
v 0.25 0.1875 -0.25
v 0.125 0.375 -0.125
v 0.125 0.375 -0.25
v 0.125 0.1875 -0.125
v 0.125 0.1875 -0.25
vt 0.625 0.75
vt 0.375 0.75
vt 0.375 0.3125
vt 0.625 0.3125
vt 0.625 0.3125
vt 0.625 0.75
vt 0.375 0.75
vt 0.375 0.3125
vt 0.375 0.375
vt 0.625 0.375
vt 0.625 0.625
vt 0.375 0.625
vt 0.625 0.375
vt 0.625 0.625
vt 0.375 0.625
vt 0.375 0.375
vt 0.625 0.3125
vt 0.625 0.75
vt 0.375 0.75
vt 0.375 0.3125
vt 0.625 0.75
vt 0.375 0.75
vt 0.375 0.3125
vt 0.625 0.3125
vt 0.40625 0.71875
vt 0.28125 0.71875
vt 0.28125 0.53125
vt 0.40625 0.53125
vt 0.40625 0.53125
vt 0.40625 0.71875
vt 0.28125 0.71875
vt 0.28125 0.53125
vt 0.28125 0.46875
vt 0.40625 0.46875
vt 0.40625 0.59375
vt 0.28125 0.59375
vt 0.40625 0.46875
vt 0.40625 0.59375
vt 0.28125 0.59375
vt 0.28125 0.46875
vt 0.40625 0.53125
vt 0.40625 0.71875
vt 0.28125 0.71875
vt 0.28125 0.53125
vt 0.40625 0.71875
vt 0.28125 0.71875
vt 0.28125 0.53125
vt 0.40625 0.53125
vt 0.40625 0.71875
vt 0.28125 0.71875
vt 0.28125 0.53125
vt 0.40625 0.53125
vt 0.40625 0.53125
vt 0.40625 0.71875
vt 0.28125 0.71875
vt 0.28125 0.53125
vt 0.28125 0.46875
vt 0.40625 0.46875
vt 0.40625 0.59375
vt 0.28125 0.59375
vt 0.40625 0.46875
vt 0.40625 0.59375
vt 0.28125 0.59375
vt 0.28125 0.46875
vt 0.40625 0.53125
vt 0.40625 0.71875
vt 0.28125 0.71875
vt 0.28125 0.53125
vt 0.40625 0.71875
vt 0.28125 0.71875
vt 0.28125 0.53125
vt 0.40625 0.53125
vt 0.40625 0.71875
vt 0.28125 0.71875
vt 0.28125 0.53125
vt 0.40625 0.53125
vt 0.40625 0.53125
vt 0.40625 0.71875
vt 0.28125 0.71875
vt 0.28125 0.53125
vt 0.28125 0.46875
vt 0.40625 0.46875
vt 0.40625 0.59375
vt 0.28125 0.59375
vt 0.40625 0.46875
vt 0.40625 0.59375
vt 0.28125 0.59375
vt 0.28125 0.46875
vt 0.40625 0.53125
vt 0.40625 0.71875
vt 0.28125 0.71875
vt 0.28125 0.53125
vt 0.40625 0.71875
vt 0.28125 0.71875
vt 0.28125 0.53125
vt 0.40625 0.53125
vt 0.40625 0.71875
vt 0.28125 0.71875
vt 0.28125 0.53125
vt 0.40625 0.53125
vt 0.40625 0.53125
vt 0.40625 0.71875
vt 0.28125 0.71875
vt 0.28125 0.53125
vt 0.28125 0.46875
vt 0.40625 0.46875
vt 0.40625 0.59375
vt 0.28125 0.59375
vt 0.40625 0.46875
vt 0.40625 0.59375
vt 0.28125 0.59375
vt 0.28125 0.46875
vt 0.40625 0.53125
vt 0.40625 0.71875
vt 0.28125 0.71875
vt 0.28125 0.53125
vt 0.40625 0.71875
vt 0.28125 0.71875
vt 0.28125 0.53125
vt 0.40625 0.53125
vn 1 0 0
vn -1 0 0
vn 0 1 0
vn 0 -1 0
vn 0 0 1
vn 0 0 -1
vn 1 0 0
vn -1 0 0
vn 0 1 0
vn 0 -1 0
vn 0 0 1
vn 0 0 -1
vn 1 0 0
vn -1 0 0
vn 0 1 0
vn 0 -1 0
vn 0 0 1
vn 0 0 -1
vn 1 0 0
vn -1 0 0
vn 0 1 0
vn 0 -1 0
vn 0 0 1
vn 0 0 -1
vn 1 0 0
vn -1 0 0
vn 0 1 0
vn 0 -1 0
vn 0 0 1
vn 0 0 -1
usemtl m_1b2e4c99-a6f9-295c-b9f3-32067fa8b834
f 2/1/1 1/2/1 3/3/1 4/4/1
f 7/5/2 5/6/2 6/7/2 8/8/2
f 5/9/3 1/10/3 2/11/3 6/12/3
f 4/13/4 3/14/4 7/15/4 8/16/4
f 3/17/5 1/18/5 5/19/5 7/20/5
f 6/21/6 2/22/6 4/23/6 8/24/6
f 10/25/7 9/26/7 11/27/7 12/28/7
f 15/29/8 13/30/8 14/31/8 16/32/8
f 13/33/9 9/34/9 10/35/9 14/36/9
f 12/37/10 11/38/10 15/39/10 16/40/10
f 11/41/11 9/42/11 13/43/11 15/44/11
f 14/45/12 10/46/12 12/47/12 16/48/12
f 18/49/13 17/50/13 19/51/13 20/52/13
f 23/53/14 21/54/14 22/55/14 24/56/14
f 21/57/15 17/58/15 18/59/15 22/60/15
f 20/61/16 19/62/16 23/63/16 24/64/16
f 19/65/17 17/66/17 21/67/17 23/68/17
f 22/69/18 18/70/18 20/71/18 24/72/18
f 26/73/19 25/74/19 27/75/19 28/76/19
f 31/77/20 29/78/20 30/79/20 32/80/20
f 29/81/21 25/82/21 26/83/21 30/84/21
f 28/85/22 27/86/22 31/87/22 32/88/22
f 27/89/23 25/90/23 29/91/23 31/92/23
f 30/93/24 26/94/24 28/95/24 32/96/24
f 34/97/25 33/98/25 35/99/25 36/100/25
f 39/101/26 37/102/26 38/103/26 40/104/26
f 37/105/27 33/106/27 34/107/27 38/108/27
f 36/109/28 35/110/28 39/111/28 40/112/28
f 35/113/29 33/114/29 37/115/29 39/116/29
f 38/117/30 34/118/30 36/119/30 40/120/30
o mesh_selection
v 0.5 0.1875 0.5
v -0.5 0.1875 0.5
v 0.5 0.09375 0.5
v -0.5 0.09375 0.5
v 0.5 0 0.5
v -0.5 0 0.5
v 0.5 0.1875 -0.5
v 0.5 0.1875 0.5
v 0.5 0.09375 -0.5
v 0.5 0.09375 0.5
v 0.5 0 -0.5
v 0.5 0 0.5
v -0.5 0.1875 -0.5
v 0.5 0.1875 -0.5
v -0.5 0.09375 -0.5
v 0.5 0.09375 -0.5
v -0.5 0 -0.5
v 0.5 0 -0.5
v -0.5 0.1875 0.5
v -0.5 0.1875 -0.5
v -0.5 0.09375 0.5
v -0.5 0.09375 -0.5
v -0.5 0 0.5
v -0.5 0 -0.5
v 0.5 0.1875 0.5
v 0.5 0.1875 -0.5
v 0.5 0 0.5
v 0.5 0 -0.5
v -0.5 0.1875 0.5
v -0.5 0.1875 -0.5
v -0.5 0 0.5
v -0.5 0 -0.5
vt 1 0.90625
vt 1 1
vt 0 1
vt 0 0.90625
vt 1 0
vt 1 0.09375
vt 0 0.09375
vt 0 0
vt 1 0.90625
vt 1 1
vt 0 1
vt 0 0.90625
vt 1 0
vt 1 0.09375
vt 0 0.09375
vt 0 0
vt 1 0.90625
vt 1 1
vt 0 1
vt 0 0.90625
vt 1 0
vt 1 0.09375
vt 0 0.09375
vt 0 0
vt 1 0.90625
vt 1 1
vt 0 1
vt 0 0.90625
vt 1 0
vt 1 0.09375
vt 0 0.09375
vt 0 0
vt 0 0
vt 1 0
vt 1 1
vt 0 1
vt 1 0
vt 1 1
vt 0 1
vt 0 0
vn 0 0 1
vn 0 0 1
vn 1 0 0
vn 1 0 0
vn 0 0 -1
vn 0 0 -1
vn -1 0 0
vn -1 0 0
vn 0 1 0
vn 0 -1 0
usemtl m_1b2e4c99-a6f9-295c-b9f3-32067fa8b834
f 43/121/31 41/122/31 42/123/31 44/124/31
f 45/125/32 43/126/32 44/127/32 46/128/32
f 49/129/33 47/130/33 48/131/33 50/132/33
f 51/133/34 49/134/34 50/135/34 52/136/34
f 55/137/35 53/138/35 54/139/35 56/140/35
f 57/141/36 55/142/36 56/143/36 58/144/36
f 61/145/37 59/146/37 60/147/37 62/148/37
f 63/149/38 61/150/38 62/151/38 64/152/38
f 69/153/39 65/154/39 66/155/39 70/156/39
f 68/157/40 67/158/40 71/159/40 72/160/40